<svg width="106" height="28" viewBox="0 0 106 28" fill="none" xmlns="http://www.w3.org/2000/svg">
<path d="M9 24L0 19V9L9 4L18 9V19L9 24ZM6.1 11.25C6.48333 10.85 6.925 10.5417 7.425 10.325C7.925 10.1083 8.45 10 9 10C9.55 10 10.075 10.1083 10.575 10.325C11.075 10.5417 11.5167 10.85 11.9 11.25L14.9 9.575L9 6.3L3.1 9.575L6.1 11.25ZM8 21.15V17.875C7.1 17.6417 6.375 17.1667 5.825 16.45C5.275 15.7333 5 14.9167 5 14C5 13.8167 5.00833 13.6458 5.025 13.4875C5.04167 13.3292 5.075 13.1667 5.125 13L2 11.25V17.825L8 21.15ZM9 16C9.55 16 10.0208 15.8042 10.4125 15.4125C10.8042 15.0208 11 14.55 11 14C11 13.45 10.8042 12.9792 10.4125 12.5875C10.0208 12.1958 9.55 12 9 12C8.45 12 7.97917 12.1958 7.5875 12.5875C7.19583 12.9792 7 13.45 7 14C7 14.55 7.19583 15.0208 7.5875 15.4125C7.97917 15.8042 8.45 16 9 16ZM10 21.15L16 17.825V11.25L12.875 13C12.925 13.1667 12.9583 13.3292 12.975 13.4875C12.9917 13.6458 13 13.8167 13 14C13 14.9167 12.725 15.7333 12.175 16.45C11.625 17.1667 10.9 17.6417 10 17.875V21.15Z" fill="#0052CC"/>
<path d="M26.7102 8.99006V6.45455H38.6562V8.99006H34.2031V21H31.1634V8.99006H26.7102ZM40.8533 21H37.5579L42.5792 6.45455H46.5423L51.5565 21H48.261L44.6175 9.77841H44.5039L40.8533 21ZM40.6474 15.2827H48.4315V17.6832H40.6474V15.2827ZM60.3658 10.6378C60.3089 10.0649 60.0651 9.61979 59.6342 9.30256C59.2034 8.98532 58.6186 8.8267 57.88 8.8267C57.3781 8.8267 56.9543 8.89773 56.6087 9.03977C56.263 9.17708 55.9979 9.36884 55.8132 9.61506C55.6333 9.86127 55.5433 10.1406 55.5433 10.4531C55.5339 10.7135 55.5883 10.9408 55.7067 11.1349C55.8298 11.3291 55.9979 11.4972 56.2109 11.6392C56.424 11.7765 56.6702 11.8973 56.9496 12.0014C57.2289 12.1009 57.5272 12.1861 57.8445 12.2571L59.1513 12.5696C59.7857 12.7116 60.3681 12.901 60.8984 13.1378C61.4287 13.3745 61.888 13.6657 62.2763 14.0114C62.6645 14.357 62.9652 14.7642 63.1783 15.233C63.3961 15.7017 63.5073 16.2391 63.5121 16.8452C63.5073 17.7353 63.2801 18.5071 62.8303 19.1605C62.3852 19.8092 61.7412 20.3134 60.8984 20.6733C60.0604 21.0284 59.0495 21.206 57.8658 21.206C56.6915 21.206 55.6688 21.026 54.7976 20.6662C53.9311 20.3063 53.254 19.7737 52.7663 19.0682C52.2834 18.358 52.0301 17.4796 52.0064 16.4332H54.9822C55.0154 16.9209 55.1551 17.3281 55.4013 17.6548C55.6522 17.9768 55.986 18.2206 56.4027 18.3864C56.8241 18.5473 57.3 18.6278 57.8303 18.6278C58.3511 18.6278 58.8033 18.5521 59.1868 18.4006C59.575 18.2491 59.8757 18.0384 60.0888 17.7685C60.3018 17.4986 60.4084 17.1884 60.4084 16.8381C60.4084 16.5114 60.3113 16.2367 60.1172 16.0142C59.9278 15.7917 59.6484 15.6023 59.2791 15.446C58.9145 15.2898 58.4671 15.1477 57.9368 15.0199L56.353 14.6222C55.1267 14.3239 54.1584 13.8575 53.4482 13.223C52.7379 12.5885 52.3852 11.7339 52.3899 10.6591C52.3852 9.77841 52.6196 9.009 53.093 8.35085C53.5713 7.69271 54.227 7.17898 55.0604 6.80966C55.8937 6.44034 56.8407 6.25568 57.9013 6.25568C58.9808 6.25568 59.9231 6.44034 60.728 6.80966C61.5376 7.17898 62.1674 7.69271 62.6172 8.35085C63.067 9.009 63.299 9.77131 63.3132 10.6378H60.3658ZM65.0806 21V6.45455H68.1559V12.8679H68.3477L73.582 6.45455H77.2681L71.8704 12.9673L77.332 21H73.6531L69.6687 15.0199L68.1559 16.8665V21H65.0806ZM78.3697 21V6.45455H81.445V18.4645H87.6808V21H78.3697ZM86.5096 6.45455H89.9542L93.271 12.7188H93.413L96.7298 6.45455H100.174L94.869 15.858V21H91.815V15.858L86.5096 6.45455Z" fill="#041B3C"/>
</svg>
